<svg xmlns="http://www.w3.org/2000/svg" viewBox="0 0 400 400"><defs><style>.cls-1{fill:#000002;}.cls-2{fill:#646464;}.cls-3{fill:#3d3d3d;}.cls-4{fill:#b0b0b0;}.cls-5{fill:#5f5f5f;}.cls-6{fill:#e3e3e3;}.cls-7{fill:#949494;}.cls-8{fill:#dbdbdb;}.cls-9{fill:#696969;}.cls-10{fill:#9f9f9f;}.cls-11{fill:#dcd9d4;}.cls-12,.cls-39{fill:none;}.cls-12{stroke:#020202;stroke-miterlimit:10;}.cls-13{fill:#c5c4c2;}.cls-14{fill:#6a6a6a;}.cls-15{fill:#bababa;}.cls-16{fill:#a3a3a3;}.cls-17{fill:#616161;}.cls-18{fill:#9a9a9a;}.cls-19{fill:#e2e2e2;}.cls-20{fill:#626262;}.cls-21{fill:#e9e9e9;}.cls-22{fill:#b2b2b2;}.cls-23{fill:#656565;}.cls-24{fill:#b3b3b3;}.cls-25{fill:#919191;}.cls-26{fill:#60768b;}.cls-27{fill:#beb9b5;}.cls-28{fill:#8c8c8c;}.cls-29{fill:#ad5f31;}.cls-30{fill:#282828;}.cls-31{fill:#8e8e8e;}.cls-32{fill:#474747;}.cls-33{fill:#393939;}.cls-34{fill:#595959;}.cls-35{fill:#a0a0a0;}.cls-36{fill:#878787;}.cls-37{fill:#e1e1e1;}.cls-38{fill:#b4b4b4;}.cls-39{opacity:0;}</style></defs><g id="Layer_2" data-name="Layer 2"><g id="Layer_1-2" data-name="Layer 1"><polygon class="cls-1" points="146.57 158 156.74 156.34 167.24 166.22 166.53 172.41 151.39 172.96 144.06 160.72 146.57 158"/><polygon class="cls-2" points="141.49 102.33 103.57 125.08 103.57 54.55 125.17 28.84 141.49 102.33"/><polygon class="cls-3" points="141.49 102.33 89.75 167.2 103.57 125.08 141.49 102.33"/><polygon class="cls-4" points="179.66 114.95 164.32 123.82 141.49 102.33 125.17 28.84 165 76.04 179.66 114.95"/><polygon class="cls-5" points="141.49 102.33 93.08 192.18 75.01 228.6 89.75 167.2 141.49 102.33"/><polygon class="cls-6" points="164.32 123.82 155.44 132.37 137.56 156.34 125.17 172.96 93.08 192.18 141.49 102.33 164.32 123.82"/><polygon class="cls-7" points="160.74 255.22 146.76 243.32 146.46 242.31 144.09 241.06 144.06 241.03 141.49 238.84 116.18 216.32 103.43 194.56 104.31 193.52 131.55 196.74 141.49 221.78 157.49 235.43 160.74 255.22"/><polygon class="cls-8" points="103.43 194.56 75.01 228.6 93.08 192.18 102.72 193.33 103.43 194.56"/><polygon class="cls-9" points="119.27 235.95 96.39 248.02 81.32 260.36 84.73 229.97 114.22 225.16 119.27 235.95"/><polygon class="cls-10" points="130.68 260.36 107.47 277.5 106.27 278.87 96.39 290.2 96.39 248.02 119.27 235.95 130.68 260.36"/><polygon class="cls-11" points="133.19 286.19 122.38 315.21 120.33 326.54 106.27 278.87 107.47 277.5 130.68 260.36 133.19 286.19"/><line class="cls-12" x1="120.25" y1="235.43" x2="119.27" y2="235.95"/><polygon class="cls-13" points="148.45 352.42 122.38 315.21 133.19 286.19 146.57 332.19 148.45 352.42"/><polygon class="cls-14" points="144.06 241.03 114.22 225.16 84.73 229.97 72.17 232.02 75.01 228.6 103.43 194.56 116.18 216.32 141.49 238.84 144.06 241.03"/><polygon class="cls-15" points="200 299.21 200 373.96 181.24 346.71 154.9 298.99 157.19 279.03 176.38 312.94 200 299.21"/><polygon class="cls-16" points="181.24 346.71 172.1 363.72 146.57 332.19 133.19 286.19 154.9 298.99 181.24 346.71"/><polygon class="cls-17" points="200 76.95 200 111.89 179.66 114.95 165 76.04 172.51 72.3 200 76.95"/><polygon class="cls-18" points="184.55 151.91 177.61 183.15 155.44 132.37 164.32 123.82 179.66 114.95 184.55 151.91"/><polygon class="cls-19" points="177.61 183.15 165 170.01 158.25 157.76 155.44 132.37 177.61 183.15"/><polygon class="cls-20" points="158.25 157.76 146.57 158 137.56 156.34 155.44 132.37 158.25 157.76"/><polygon class="cls-18" points="177.61 183.15 146.32 193.33 125.17 172.96 137.56 156.34 146.57 158 152.71 171.03 165 170.01 177.61 183.15"/><polygon class="cls-3" points="146.32 193.33 131.55 196.74 104.31 193.52 102.72 193.33 93.08 192.18 125.17 172.96 146.32 193.33"/><polygon class="cls-21" points="146.32 193.33 141.49 221.78 131.55 196.74 146.32 193.33"/><polygon class="cls-22" points="177.61 183.15 172.34 212.55 157.49 235.43 141.49 221.78 146.32 193.33 177.61 183.15"/><polygon class="cls-11" points="181.08 205.73 177.04 228.6 176.77 230.13 176.77 235.43 157.49 235.43 172.34 212.55 177.61 183.15 181.08 205.73"/><polygon class="cls-23" points="200 111.89 200 137.62 184.55 151.91 179.66 114.95 200 111.89"/><polygon class="cls-24" points="200 137.62 200 223.36 186.9 223.36 177.04 228.6 181.08 205.73 177.61 183.15 184.55 151.91 200 137.62"/><polygon class="cls-25" points="200 259.07 200 273.46 172.34 265.11 160.74 255.22 157.49 235.43 176.77 235.43 176.77 246.35 192.7 257.84 200 259.07"/><polygon class="cls-26" points="189.57 250.34 192.7 257.84 176.77 246.35 176.77 245.21 188.38 242.89 189.57 250.34"/><polygon class="cls-22" points="200 223.36 200 239.58 188.38 242.89 176.77 245.21 176.77 230.13 177.04 228.6 186.9 223.36 200 223.36"/><polygon class="cls-27" points="157.19 279.03 154.9 298.99 133.19 286.19 130.68 260.36 119.27 235.95 114.22 225.16 144.06 241.03 144.09 241.06 146.76 243.32 157.19 279.03"/><polygon class="cls-28" points="200 273.46 200 299.21 176.38 312.94 157.19 279.03 146.76 243.32 160.74 255.22 172.34 265.11 200 273.46"/><path class="cls-29" d="M158.43,163.12a1.69,1.69,0,1,1-1.69-1.69A1.69,1.69,0,0,1,158.43,163.12Z"/><path class="cls-29" d="M158.43,163.12a1.69,1.69,0,1,1-1.69-1.69A1.69,1.69,0,0,1,158.43,163.12Z"/><path class="cls-20" d="M160.88,164.15a4.89,4.89,0,0,1-.13,1.15,5.28,5.28,0,0,0-10.08.75,5.21,5.21,0,0,1-.35-1.9,5.28,5.28,0,0,1,10.56,0Z"/><path class="cls-19" d="M155.83,161.93a5.29,5.29,0,0,0-5.16,4.12,5.28,5.28,0,0,0,10.08-.75A5.28,5.28,0,0,0,155.83,161.93Zm.61,2.7a1.25,1.25,0,1,1,1.25-1.24A1.24,1.24,0,0,1,156.44,164.63Z"/><path class="cls-1" d="M158.21,163.91a1.77,1.77,0,1,1-1.77-1.77A1.77,1.77,0,0,1,158.21,163.91Z"/><polygon class="cls-30" points="200 273.46 172.34 265.11 183.17 261.74 200 261.14 200 273.46"/><polygon class="cls-31" points="184.55 151.91 200 183.11 181.08 205.73 177.61 183.15 184.55 151.91"/><polygon class="cls-30" points="199.44 260.2 187.98 256.96 176.55 244.27 186.57 243.91 199.44 260.2"/><path class="cls-32" d="M184.92,220.27l-8.37,9,10,14.65,12.87,16.29V230.91Zm9.27,31.88-6.9-8.76v-7.72h6.9Z"/><polygon class="cls-30" points="187.29 235.67 194.19 235.67 194.19 252.15 187.29 243.39 187.29 235.67"/><polygon class="cls-33" points="199.44 220.27 199.44 230.91 184.92 220.27 199.44 220.27"/><polygon class="cls-34" points="186.57 243.91 176.55 244.27 176.55 229.26 186.57 243.91"/><polygon class="cls-30" points="194.19 235.67 194.19 252.15 187.29 243.39 187.29 235.67 194.19 235.67"/><polygon class="cls-1" points="252.31 158 242.13 156.34 231.64 166.22 232.35 172.41 247.49 172.96 254.82 160.72 252.31 158"/><polygon class="cls-2" points="257.38 102.33 295.31 125.08 295.31 54.55 273.71 28.84 257.38 102.33"/><polygon class="cls-3" points="257.38 102.33 309.12 167.2 295.31 125.08 257.38 102.33"/><polygon class="cls-4" points="219.22 114.95 234.56 123.82 257.38 102.33 273.71 28.84 233.88 76.04 219.22 114.95"/><polygon class="cls-5" points="257.38 102.33 305.79 192.18 323.87 228.6 309.12 167.2 257.38 102.33"/><polygon class="cls-6" points="234.56 123.82 243.43 132.37 261.32 156.34 273.71 172.96 305.79 192.18 257.38 102.33 234.56 123.82"/><polygon class="cls-7" points="238.14 255.22 252.12 243.32 252.42 242.31 254.79 241.06 254.82 241.03 257.38 238.84 282.69 216.32 295.44 194.56 294.57 193.52 267.32 196.74 257.38 221.78 241.39 235.43 238.14 255.22"/><polygon class="cls-8" points="295.44 194.56 323.87 228.6 305.79 192.18 296.15 193.33 295.44 194.56"/><polygon class="cls-9" points="279.61 235.95 302.49 248.02 317.56 260.36 314.15 229.97 284.66 225.16 279.61 235.95"/><polygon class="cls-10" points="268.2 260.36 291.4 277.5 292.61 278.87 302.49 290.2 302.49 248.02 279.61 235.95 268.2 260.36"/><polygon class="cls-11" points="265.69 286.19 276.5 315.21 278.54 326.54 292.61 278.87 291.4 277.5 268.2 260.36 265.69 286.19"/><line class="cls-12" x1="279.61" y1="235.95" x2="278.63" y2="235.43"/><polygon class="cls-13" points="250.42 352.42 276.5 315.21 265.69 286.19 252.31 332.19 250.42 352.42"/><polygon class="cls-14" points="254.82 241.03 284.66 225.16 314.15 229.97 326.7 232.02 323.87 228.6 295.44 194.56 282.69 216.32 257.38 238.84 254.82 241.03"/><polygon class="cls-35" points="198.88 299.21 198.88 373.96 217.63 346.71 243.98 298.99 241.69 279.03 222.49 312.94 198.88 299.21"/><polygon class="cls-16" points="217.63 346.71 226.78 363.72 252.31 332.19 265.69 286.19 243.98 298.99 217.63 346.71"/><polygon class="cls-36" points="198.88 76.95 198.88 111.89 219.22 114.95 233.88 76.04 226.37 72.3 198.88 76.95"/><polygon class="cls-18" points="214.33 151.91 221.26 183.15 243.43 132.37 234.56 123.82 219.22 114.95 214.33 151.91"/><polygon class="cls-19" points="221.26 183.15 233.88 170.01 240.63 157.76 243.43 132.37 221.26 183.15"/><polygon class="cls-20" points="240.63 157.76 252.31 158 261.32 156.34 243.43 132.37 240.63 157.76"/><polygon class="cls-18" points="221.26 183.15 252.55 193.33 273.71 172.96 261.32 156.34 252.31 158 246.16 171.03 233.88 170.01 221.26 183.15"/><polygon class="cls-3" points="252.55 193.33 267.32 196.74 294.57 193.52 296.15 193.33 305.79 192.18 273.71 172.96 252.55 193.33"/><polygon class="cls-21" points="252.55 193.33 257.38 221.78 267.32 196.74 252.55 193.33"/><polygon class="cls-22" points="221.26 183.15 226.53 212.55 241.39 235.43 257.38 221.78 252.55 193.33 221.26 183.15"/><polygon class="cls-11" points="217.8 205.73 221.84 228.6 222.11 230.13 222.11 235.43 241.39 235.43 226.53 212.55 221.26 183.15 217.8 205.73"/><polygon class="cls-23" points="198.88 111.89 198.88 137.62 214.33 151.91 219.22 114.95 198.88 111.89"/><polygon class="cls-24" points="198.88 137.62 198.88 223.36 211.98 223.36 221.84 228.6 217.8 205.73 221.26 183.15 214.33 151.91 198.88 137.62"/><polygon class="cls-25" points="198.88 259.07 198.88 273.46 226.53 265.11 238.14 255.22 241.39 235.43 222.11 235.43 222.11 246.35 206.18 257.84 198.88 259.07"/><polygon class="cls-26" points="209.31 250.34 206.18 257.84 222.11 246.35 222.11 245.21 210.49 242.89 209.31 250.34"/><polygon class="cls-22" points="198.88 223.36 198.88 239.58 210.49 242.89 222.11 245.21 222.11 230.13 221.84 228.6 211.98 223.36 198.88 223.36"/><polygon class="cls-37" points="241.69 279.03 243.98 298.99 265.69 286.19 268.2 260.36 279.61 235.95 284.66 225.16 254.82 241.03 254.79 241.06 252.12 243.32 241.69 279.03"/><polygon class="cls-38" points="198.88 273.46 198.88 299.21 222.49 312.94 241.69 279.03 252.12 243.32 238.14 255.22 226.53 265.11 198.88 273.46"/><path class="cls-29" d="M240.45,163.12a1.69,1.69,0,1,0,1.69-1.69A1.69,1.69,0,0,0,240.45,163.12Z"/><path class="cls-29" d="M240.45,163.12a1.69,1.69,0,1,0,1.69-1.69A1.69,1.69,0,0,0,240.45,163.12Z"/><path class="cls-20" d="M238,164.15a4.89,4.89,0,0,0,.13,1.15,5.28,5.28,0,0,1,10.07.75,5.22,5.22,0,0,0,.36-1.9,5.28,5.28,0,0,0-10.56,0Z"/><path class="cls-19" d="M238.13,165.3a5.27,5.27,0,0,0,10.07.75,5.28,5.28,0,0,0-10.07-.75Zm3.06-1.91a1.25,1.25,0,1,1,1.25,1.24A1.25,1.25,0,0,1,241.19,163.39Z"/><path class="cls-1" d="M240.67,163.91a1.77,1.77,0,1,0,1.77-1.77A1.77,1.77,0,0,0,240.67,163.91Z"/><polygon class="cls-30" points="198.88 273.46 226.53 265.11 215.71 261.74 198.88 261.14 198.88 273.46"/><polygon class="cls-31" points="214.33 151.91 198.88 183.11 217.8 205.73 221.26 183.15 214.33 151.91"/><polygon class="cls-30" points="198.88 260.2 210.89 256.96 222.32 244.27 212.31 243.91 198.88 260.2"/><path class="cls-32" d="M198.88,230.91V260.2l13.43-16.29,10-14.65-8.37-9Zm5.81,4.76h6.9v7.72l-6.9,8.76Z"/><polygon class="cls-30" points="211.59 235.67 204.69 235.67 204.69 252.15 211.59 243.39 211.59 235.67"/><polygon class="cls-33" points="198.88 220.27 198.88 230.91 213.96 220.27 198.88 220.27"/><polygon class="cls-34" points="212.31 243.91 222.32 244.27 222.32 229.26 212.31 243.91"/><polygon class="cls-30" points="204.69 235.67 204.69 252.15 211.59 243.39 211.59 235.67 204.69 235.67"/><polygon class="cls-17" points="103.57 125.08 75.01 165.68 92.85 157.76 103.57 125.08"/><polygon class="cls-17" points="294.18 125.08 317.56 164.63 304.9 157.76 294.18 125.08"/><rect class="cls-39" width="400" height="400"/></g></g></svg>
